<svg xmlns="http://www.w3.org/2000/svg" width="256" height="256"><path fill="#1976D2" fill-opacity=".004" fill-rule="evenodd" d="M0 128.004v128.004l128.25-.254 128.25-.254.254-127.75L257.008 0H0v128.004m.485.496c0 70.4.119 99.053.265 63.672.146-35.38.146-92.98 0-128C.604 29.153.485 58.1.485 128.5"/><path fill="#1976D2" fill-opacity=".051" fill-rule="evenodd" d="M0 26.017v26.017l25.75-.267L51.5 51.5l.267-25.75L52.034 0H0v26.017m204.233-.267.267 25.75 25.75.267 25.75.267V0h-52.034l.267 25.75M102 128v26h52v-52h-52v26M0 229.983V256h52.034l-.267-25.75-.267-25.75-25.75-.267L0 203.966v26.017m204.667-25.316c-.367.366-.667 12.066-.667 26V256h52v-52h-25.333c-13.934 0-25.634.3-26 .667"/><path fill="#1976D2" fill-opacity=".096" fill-rule="evenodd" d="M0 25.5V51h51V0H0v25.5m205 0V51h51V0h-51v25.5m-102.543 77.752c-.272.707-.373 12.302-.225 25.767l.268 24.481h51v-51l-25.275-.267c-19.87-.21-25.38.008-25.768 1.019M0 230.5V256h51v-51H0v25.5m205 0V256h51v-51h-51v25.5"/><path fill="#1976D2" fill-opacity=".156" fill-rule="evenodd" d="M0 25.5V51h51V0H0v25.5m205 0V51h51V0h-51v25.5m-101.544 78.753c-.271.709-.373 11.854-.225 24.768l.269 23.479h49v-49l-24.275-.268c-19.079-.21-24.38.008-24.769 1.021M0 230.5V256h51v-51H0v25.5m205 0V256h51v-51h-51v25.5"/></svg>