<svg xmlns="http://www.w3.org/2000/svg" width="256" height="256"><path fill="#1976D2" fill-opacity=".016" fill-rule="evenodd" d="M0 128.004v128.004l128.25-.254 128.25-.254.254-127.75L257.008 0H0zm.485.496c0 70.4.119 99.053.265 63.672s.146-92.98 0-128S.485 58.1.485 128.5"/><path fill="#1976D2" fill-opacity=".071" fill-rule="evenodd" d="M58.5 60.024C28.25 77.085 2.712 91.984 1.75 93.133c-3.832 4.573-3.124 6.12 28.82 62.966 16.814 29.92 31.896 55.638 33.516 57.151 1.741 1.626 4.063 2.744 5.68 2.736 1.619-.008 10.649-4.502 22.136-11.015 10.67-6.051 19.586-10.817 19.811-10.591s.994 6.323 1.707 13.55c1.647 16.702 2.601 18.079 12.504 18.052 3.617-.01 33.021-2.438 65.342-5.396 62.94-5.759 62.97-5.764 64.406-11.349.387-1.505-1.845-31.262-4.96-66.126-5.988-67.011-6.007-67.132-11.185-69.101-1.565-.595-16.731.404-44.698 2.942-38.501 3.495-42.442 3.699-43.58 2.253-.688-.874-7.143-12.085-14.345-24.913-7.201-12.828-13.921-23.766-14.933-24.307-5.054-2.705-7.307-1.639-63.471 30.039"/><path fill="#1976D2" fill-opacity=".296" fill-rule="evenodd" d="M57.858 60.689C1.496 92.64 0 93.632 0 99.07c0 1.924 60.764 110.748 63.723 114.123 2.442 2.786 6.672 3.156 10.975.961 2.124-1.083 11.408-6.264 20.632-11.513 10.286-5.853 16.91-9.078 17.132-8.342.199.661.834 6.766 1.411 13.567 1.136 13.391 2.383 16.658 6.775 17.76 1.442.362 31.019-1.899 65.726-5.025 66.119-5.956 66.491-6.015 68.749-10.971.757-1.662-.452-18.712-4.553-64.197-3.071-34.063-5.581-62.686-5.577-63.606s-1.158-3.058-2.582-4.75c-3.306-3.929-1.519-3.948-50.71.533-21.89 1.994-39.943 3.46-40.118 3.258-.175-.203-6.254-10.943-13.507-23.868s-14.313-24.513-15.688-25.75c-1.553-1.398-3.709-2.222-5.694-2.177-2.267.052-19.348 9.231-58.836 31.616"/><path fill="#1976D2" fill-opacity=".104" fill-rule="evenodd" d="M59.246 60.278C28.857 77.494 3.229 92.342 2.296 93.275c-3.876 3.876-2.818 6.152 29.623 63.684 17.199 30.503 32.016 56.026 32.926 56.718 3.758 2.859 7.65 1.509 26.648-9.24 10.268-5.809 19.249-10.785 19.958-11.057.976-.374 1.589 2.733 2.526 12.813 1.251 13.453 2.329 16.83 5.998 18.794 1.454.778 18.258-.394 63.75-4.445 33.976-3.026 63.328-5.848 65.226-6.272 2.321-.518 4.015-1.752 5.175-3.77 1.659-2.887 1.506-5.394-4.07-66.725-6.132-67.457-6.225-68.027-11.319-69.305-1.23-.308-21.276 1.161-44.546 3.266-28.711 2.597-42.569 3.496-43.12 2.796-.447-.568-6.76-11.607-14.029-24.532s-13.771-24.078-14.449-24.784-2.775-1.498-4.662-1.761c-3.045-.424-9.654 3.047-58.685 30.823"/></svg>